<svg xmlns="http://www.w3.org/2000/svg" viewBox="0 0 50 50" width="35.607" height="35.645"><path d="M 25 2 C 12.309295 2 2 12.309295 2 25 C 2 37.690705 12.309295 48 25 48 C 37.690705 48 48 37.690705 48 25 C 48 12.309295 37.690705 2 25 2 z M 25 4 C 36.609824 4 46 13.390176 46 25 C 46 36.609824 36.609824 46 25 46 C 13.390176 46 4 36.609824 4 25 C 4 13.390176 13.390176 4 25 4 z M 36.800781 12 C 32.100781 12 27.200781 13.699609 22.300781 18.599609 C 21.500781 19.399609 20.8 20.1 20 21 C 15.9 21 12.9 22.1 10 25 L 8 27 L 17 27 L 16 30 L 20 34 L 23 33 L 23 42 L 25 40 C 27.9 37.1 29 34.1 29 30 C 29.9 29.3 30.600391 28.599219 31.400391 27.699219 C 36.700391 22.399219 38.5 16.9 38 12 L 36.800781 12 z M 36.072266 14.015625 C 35.935266 18.207625 33.857328 22.414156 29.986328 26.285156 L 29.943359 26.328125 L 29.904297 26.371094 C 29.094297 27.283094 28.496484 27.857875 27.771484 28.421875 L 27 29.021484 L 27 30 C 27 32.853 26.403 34.990453 25 36.939453 L 25 33 L 25 30.224609 L 22.367188 31.101562 L 20.541016 31.710938 L 18.289062 29.458984 L 18.898438 27.632812 L 19.775391 25 L 17 25 L 13.060547 25 C 15.009547 23.597 17.147 23 20 23 L 20.898438 23 L 21.494141 22.328125 C 22.254141 21.473125 22.930844 20.799625 23.714844 20.015625 C 27.554844 16.174625 31.603266 14.206625 36.072266 14.015625 z M 29 19 A 2 2 0 0 0 27 21 A 2 2 0 0 0 29 23 A 2 2 0 0 0 31 21 A 2 2 0 0 0 29 19 z M 14.773438 31.773438 C 14.571438 31.933438 14.378937 32.099578 14.210938 32.267578 C 12.610938 33.867578 11.909766 35.966797 12.009766 37.966797 C 14.009766 38.166797 16.110938 37.467188 17.710938 35.867188 C 17.893937 35.684188 18.072094 35.468094 18.246094 35.246094 L 17.429688 34.429688 C 16.489687 35.001688 15.667766 35.039797 15.009766 34.966797 C 14.937766 34.320797 15.028609 33.517609 15.599609 32.599609 L 14.773438 31.773438 z"/></svg>